<svg id="Capa_1" data-name="Capa 1" xmlns="http://www.w3.org/2000/svg" viewBox="0 0 512 467.43"><path d="M480,276.81H32a32,32,0,0,0,0,64H480a32,32,0,0,0,0-64Z" transform="translate(0 -22.71)"/><path d="M482.94,319.88a10.6,10.6,0,0,0-13.18,7.34l-.83,2.92H43.09l-.85-2.92a10.66,10.66,0,1,0-20.5,5.84L51.14,436a75,75,0,0,0,71.78,54.16H389.06A75,75,0,0,0,460.84,436l29.4-102.92A10.64,10.64,0,0,0,482.94,319.88Zm-360,127.59a32.1,32.1,0,0,1-30.76-23.21L78.34,375.75a10.66,10.66,0,1,1,20.5-5.84l13.84,48.51a10.77,10.77,0,0,0,10.26,7.74,10.66,10.66,0,1,1,0,21.31Z" transform="translate(0 -22.71)"/><path d="M458.67,298.14A10.67,10.67,0,0,1,448,287.47v-224a19.49,19.49,0,0,0-33.26-13.71L380.89,83.59A10.67,10.67,0,0,1,365.8,68.51l33.86-33.86a40.84,40.84,0,0,1,69.69,28.8v224A10.71,10.71,0,0,1,458.67,298.14Z" transform="translate(0 -22.71)"/><path d="M391.55,79.18,370.22,57.84a10.56,10.56,0,0,0-9.28-3L307.61,63.6a10.66,10.66,0,0,0-5.94,17.94l64,65.92a10.68,10.68,0,0,0,18.12-5.33L394.45,88.8A10.63,10.63,0,0,0,391.55,79.18Z" transform="translate(0 -22.71)"/><path d="M224,191.47a10.65,10.65,0,0,1-7.55-18.19l21.33-21.34A10.67,10.67,0,0,1,252.86,167l-21.33,21.33A10.62,10.62,0,0,1,224,191.47Z" transform="translate(0 -22.71)"/><path d="M266.67,234.14a10.66,10.66,0,0,1-7.56-18.2l21.34-21.33a10.66,10.66,0,1,1,15.08,15.08L274.2,231A10.62,10.62,0,0,1,266.67,234.14Z" transform="translate(0 -22.71)"/><path d="M288,170.14a10.66,10.66,0,0,1-7.55-18.2l21.33-21.33a10.66,10.66,0,0,1,15.08,15.08L295.53,167A10.62,10.62,0,0,1,288,170.14Z" transform="translate(0 -22.71)"/></svg>