<svg id="Layer_1" data-name="Layer 1" xmlns="http://www.w3.org/2000/svg" viewBox="0 0 512 362.67"><path d="M458.67,224H53.33A53.41,53.41,0,0,0,0,277.33V426.67a10.67,10.67,0,0,0,21.33,0v-32H490.67v32a10.67,10.67,0,0,0,21.33,0V277.33A53.41,53.41,0,0,0,458.67,224Zm32,149.33H21.33V352H490.67ZM53.33,202.67h53.34a10.66,10.66,0,0,1-10.35-13.25L103,162.9a32,32,0,0,1,31-24.23h68.68a32,32,0,0,1,32,32V192A10.67,10.67,0,0,1,224,202.67h64A10.67,10.67,0,0,1,277.33,192V170.67a32,32,0,0,1,32-32H378a32,32,0,0,1,31,24.23l6.63,26.52a10.59,10.59,0,0,1-1.94,9.15,10.7,10.7,0,0,1-8.41,4.1h53.34A10.67,10.67,0,0,0,469.33,192V128A53.4,53.4,0,0,0,416,74.67H96A53.4,53.4,0,0,0,42.67,128v64A10.67,10.67,0,0,0,53.33,202.67Z" transform="translate(0 -74.67)"/></svg>