<svg id="Layer_1" data-name="Layer 1" xmlns="http://www.w3.org/2000/svg" viewBox="0 0 398.41 396.05"><defs><style>.cls-1{fill:#051928;}</style></defs><path class="cls-1" d="M24.29,220.21h67.6a53.64,53.64,0,1,0,0-25H24.29a12.5,12.5,0,1,0,0,25Z" transform="translate(-11.79 -9.68)"/><path class="cls-1" d="M24.29,75.82H198.08a53.64,53.64,0,1,0,0-25H24.29a12.5,12.5,0,0,0,0,25Z" transform="translate(-11.79 -9.68)"/><path class="cls-1" d="M273.41,298.45a53.73,53.73,0,0,0-52.16,41.14h-197a12.5,12.5,0,0,0,0,25h197a53.64,53.64,0,1,0,52.16-66.14Z" transform="translate(-11.79 -9.68)"/><path class="cls-1" d="M397.71,339.59H350.49a12.5,12.5,0,0,0,0,25h47.22a12.5,12.5,0,0,0,0-25Z" transform="translate(-11.79 -9.68)"/><path class="cls-1" d="M397.71,195.21H221a12.5,12.5,0,0,0,0,25H397.71a12.5,12.5,0,0,0,0-25Z" transform="translate(-11.79 -9.68)"/><path class="cls-1" d="M327.08,75.82h70.63a12.5,12.5,0,1,0,0-25H327.08a12.5,12.5,0,0,0,0,25Z" transform="translate(-11.79 -9.68)"/></svg>