<svg id="Layer_1" data-name="Layer 1" xmlns="http://www.w3.org/2000/svg" viewBox="0 0 20.09 21.08"><path d="M13,2.46A2.47,2.47,0,1,1,10.54,0,2.47,2.47,0,0,1,13,2.46Zm0,0"/><path d="M12,19.6a1.48,1.48,0,1,1-1.48-1.48A1.48,1.48,0,0,1,12,19.6Zm0,0"/><path d="M6.7,5A2.22,2.22,0,1,1,4.48,2.75,2.22,2.22,0,0,1,6.7,5Zm0,0"/><path d="M17.83,17.09a1.23,1.23,0,1,1-1.23-1.23,1.23,1.23,0,0,1,1.23,1.23Zm0,0"/><path d="M3.94,11a2,2,0,1,1-2-2,2,2,0,0,1,2,2Zm0,0"/><path d="M20.09,11a1,1,0,1,1-1-1,1,1,0,0,1,1,1Zm0,0"/><path d="M3.26,15.87a1.73,1.73,0,0,0,0,2.44,1.73,1.73,0,1,0,0-2.44Zm0,0"/><path d="M17.34,5a.74.74,0,1,1-.74-.74.74.74,0,0,1,.74.74Zm0,0"/></svg>