
<svg fill="currentColor" xmlns="http://www.w3.org/2000/svg" xml:space="preserve" width="52.8014mm" height="59.3963mm" version="1.1" style="shape-rendering:geometricPrecision; text-rendering:geometricPrecision; image-rendering:optimizeQuality; fill-rule:evenodd; clip-rule:evenodd"
viewBox="0 0 1227 1380.25"
 xmlns:xlink="http://www.w3.org/1999/xlink"
 xmlns:xodm="http://www.corel.com/coreldraw/odm/2003">
 <g>
  <metadata id="CorelCorpID_0Corel-Layer"/>
  <path class="fil0" d="M1110.81 610.2c0,-32.08 26.01,-58.09 58.09,-58.09 32.08,0 58.09,26.01 58.09,58.09 0,180.16 -73.03,343.27 -191.1,461.34 -118.07,118.07 -281.18,191.1 -461.34,191.1 -83.65,0 -163.82,-15.87 -237.66,-44.77 -48.29,-18.9 -93.85,-43.5 -135.88,-72.97l-0 177.49c0,31.96 -25.91,57.87 -57.87,57.87 -31.96,0 -57.87,-25.91 -57.87,-57.87l0 -324.84c0,-31.96 25.91,-57.87 57.87,-57.87l324.84 0c31.96,0 57.87,25.91 57.87,57.87 0,31.96 -25.91,57.87 -57.87,57.87l-192.84 -0c32.26,21.68 67.08,40 103.95,54.43 60.36,23.63 126.28,36.6 195.45,36.6 148.08,0 282.15,-60.02 379.19,-157.06 97.04,-97.04 157.06,-231.11 157.06,-379.19zm-84.82 -552.33c0,-31.96 25.91,-57.87 57.87,-57.87 31.96,0 57.87,25.91 57.87,57.87l-0 324.84c0,31.96 -25.91,57.87 -57.87,57.87l-324.84 -0c-31.96,0 -57.87,-25.91 -57.87,-57.87 0,-31.96 25.91,-57.87 57.87,-57.87l192.84 0c-32.26,-21.68 -67.08,-40 -103.95,-54.43 -60.36,-23.63 -126.28,-36.6 -195.45,-36.6 -148.09,0 -282.15,60.02 -379.19,157.06 -97.04,97.04 -157.06,231.1 -157.06,379.19 0,32.08 -26.01,58.09 -58.09,58.09 -32.08,0 -58.09,-26.01 -58.09,-58.09 0,-180.16 73.03,-343.27 191.1,-461.34 118.07,-118.07 281.18,-191.1 461.34,-191.1 83.65,0 163.82,15.87 237.66,44.77 48.29,18.9 93.85,43.5 135.88,72.97l0 -177.49z"/>
 </g>
</svg>
