<svg id="Layer_1" data-name="Layer 1" xmlns="http://www.w3.org/2000/svg" xmlns:xlink="http://www.w3.org/1999/xlink" viewBox="0 0 19.21 19.21"><defs><style>.cls-1{fill:none;}.cls-2{clip-path:url(#clip-path);}.cls-3{fill-rule:evenodd;}</style><clipPath id="clip-path" transform="translate(-3.11 -5.02)"><rect class="cls-1" x="3.11" y="5.02" width="19.92" height="20"/></clipPath></defs><g class="cls-2"><path class="cls-3" d="M21.85,13.48l-8-8a1.62,1.62,0,1,0-2.28,2.29l6.85,6.85-6.85,6.85a1.61,1.61,0,1,0,2.28,2.28l8-8a1.62,1.62,0,0,0,0-2.29ZM12.24,13,5.9,6.31a1.58,1.58,0,0,0-2.31,0,1.79,1.79,0,0,0,0,2.44l5.19,5.47L3.59,19.69a1.78,1.78,0,0,0,0,2.43,1.58,1.58,0,0,0,2.31,0l6.34-6.69a1.78,1.78,0,0,0,0-2.43Zm0,0" transform="translate(-3.11 -5.02)"/></g></svg>