
<svg fill="currentColor" version="1.1"  xmlns="http://www.w3.org/2000/svg" xmlns:xlink="http://www.w3.org/1999/xlink" x="0px" y="0px"
	 viewBox="0 0 340.3 340.3" style="enable-background:new 0 0 340.3 340.3;" xml:space="preserve">
	<g>
		<g>
			<g>
				<path d="M316.55,40.7c-0.4-2.4-2.4-4.4-4.8-4.8l-140-35.6c-1.2-0.4-2-0.4-3.2,0l-140,35.6c-2.4,0.8-4.4,2.4-4.8,4.8
					c-0.4,2.4-44.4,219.2,144,299.2c0.8,0.4,1.6,0.4,2.4,0.4s1.6,0,2.4-0.4C360.95,259.9,316.95,42.7,316.55,40.7z M170.15,326.7
					c-164-71.6-140-250-134.4-279.6l134.4-34l134.4,34C309.75,76.7,334.15,255.1,170.15,326.7z"/>
				<path d="M278.55,61.5l-107.2-27.2c-1.2-0.4-2-0.4-3.2,0L60.95,61.5c-2.4,0.8-4.4,2.4-4.8,4.8c0,2-33.6,169.2,111.6,230.8
					c0.8,0.4,1.6,0.4,2.4,0.4s1.6,0,2.4-0.4c145.2-61.6,111.2-228.8,110.8-230.8C282.95,63.9,280.95,61.9,278.55,61.5z M170.15,284.3
					c-122.4-54-106-186-101.6-211.2l101.6-25.6l101.6,25.6C276.15,98.3,292.55,230.3,170.15,284.3z"/>
				<path d="M170.15,100.3c-33.2,0-60.4,27.2-60.4,60.4c0,33.2,27.2,60.4,60.4,60.4s60.4-27.2,60.4-60.4
					C230.55,127.5,203.35,100.3,170.15,100.3z M217.75,160.3c0,26.4-21.2,47.6-47.6,47.6c-26.4,0-47.6-21.2-47.6-47.6
					c0-26.4,21.2-47.2,47.6-47.2c15.2,0,28.4,7.2,37.2,18c-0.4,0.4-0.8,0.4-1.2,0.8l-45.6,38.8l-15.6-22.8c-2-2.8-6-3.6-8.8-1.6
					s-3.6,6-1.6,8.8l19.6,28.4c1.2,1.6,2.8,2.4,4.4,2.8c0.4,0,0.4,0,0.8,0c1.6,0,2.8-0.4,4-1.6l50.8-42.8
					C216.55,147.5,217.75,153.9,217.75,160.3z"/>
			</g>
		</g>
	</g>
</svg>
